<?xml version="1.0" standalone="no"?>
<!DOCTYPE svg PUBLIC "-//W3C//DTD SVG 20010904//EN"
 "http://www.w3.org/TR/2001/REC-SVG-20010904/DTD/svg10.dtd">
<svg version="1.0" xmlns="http://www.w3.org/2000/svg"
 width="3264.000000pt" height="3264.000000pt" viewBox="0 0 3264.000000 3264.000000"
 preserveAspectRatio="xMidYMid meet">

<g transform="translate(0.000000,3264.000000) scale(0.100000,-0.100000)"
fill="#000000" stroke="none">
<path d="M4630 32530 c-107 -4 -214 -12 -237 -19 -23 -6 -79 -16 -125 -21 -46
-6 -114 -17 -153 -25 -38 -7 -92 -18 -120 -24 -27 -5 -88 -19 -135 -31 -47
-12 -110 -27 -140 -35 -134 -33 -214 -56 -224 -64 -6 -5 -27 -12 -46 -16 -19
-4 -39 -11 -45 -15 -5 -4 -32 -15 -60 -23 -27 -9 -81 -28 -120 -42 -38 -14
-85 -31 -102 -36 -18 -5 -77 -32 -130 -58 -54 -27 -143 -70 -198 -96 -154 -72
-175 -83 -250 -130 -38 -25 -77 -48 -85 -51 -8 -4 -41 -25 -73 -46 -32 -21
-60 -38 -62 -38 -5 0 -128 -83 -146 -98 -8 -7 -41 -32 -74 -57 -33 -24 -64
-48 -70 -53 -5 -4 -32 -23 -60 -42 -46 -33 -97 -74 -134 -111 -9 -8 -70 -62
-136 -119 -135 -116 -241 -222 -389 -390 -55 -63 -108 -122 -116 -132 -17 -19
-16 -17 -100 -131 -36 -49 -90 -120 -121 -160 -30 -40 -58 -79 -62 -87 -4 -8
-27 -46 -52 -85 -25 -38 -52 -83 -60 -100 -9 -16 -36 -61 -60 -100 -42 -67
-143 -264 -200 -390 -15 -33 -40 -87 -56 -119 -16 -33 -29 -64 -29 -70 -1 -6
-9 -29 -20 -51 -11 -22 -19 -49 -20 -60 0 -11 -6 -29 -13 -40 -8 -11 -19 -38
-25 -60 -6 -22 -23 -71 -37 -110 -40 -107 -68 -207 -111 -395 -8 -36 -19 -76
-24 -90 -11 -27 -33 -154 -55 -323 -8 -60 -19 -125 -24 -145 -6 -20 -15 -154
-21 -297 -14 -349 -14 -22963 0 -23288 6 -125 15 -249 21 -275 6 -26 17 -94
24 -152 24 -191 37 -264 56 -326 10 -33 19 -68 19 -78 0 -10 8 -48 19 -84 10
-37 24 -87 30 -112 33 -125 62 -220 86 -275 7 -16 22 -55 32 -85 57 -160 69
-191 109 -276 116 -253 188 -398 209 -424 7 -8 15 -22 19 -30 4 -8 17 -31 29
-51 12 -20 40 -67 62 -103 56 -95 57 -96 87 -141 38 -56 87 -125 126 -176 18
-24 65 -87 104 -139 39 -52 87 -113 107 -135 198 -216 270 -293 296 -316 46
-41 80 -73 198 -182 119 -110 122 -113 297 -242 198 -146 220 -161 320 -220
52 -31 138 -83 190 -115 111 -68 186 -106 455 -230 50 -23 102 -48 116 -55 14
-8 43 -19 65 -24 39 -10 84 -26 219 -76 73 -27 142 -47 235 -69 30 -7 77 -21
103 -30 26 -9 56 -16 67 -16 11 0 37 -6 57 -14 57 -21 218 -54 302 -62 41 -3
88 -10 105 -15 31 -9 241 -30 501 -49 97 -8 3701 -10 11640 -8 10860 3 11510
4 11675 20 96 10 216 25 265 33 50 8 132 20 184 25 51 6 98 13 104 17 5 3 37
12 71 19 79 17 169 40 226 59 25 8 54 15 65 15 11 1 38 8 60 16 22 8 58 19 80
24 22 5 72 20 110 35 122 46 179 66 225 79 25 7 54 18 65 24 11 6 58 29 105
50 246 116 362 173 402 199 23 15 54 33 68 40 14 7 37 21 52 30 35 24 153 94
187 112 14 8 49 31 76 53 28 21 58 44 67 51 116 82 327 243 338 257 3 3 70 64
149 135 80 71 163 149 185 174 23 25 48 52 56 61 24 26 193 214 220 246 14 16
41 51 60 79 19 27 40 55 45 62 6 7 18 23 27 35 10 13 42 55 71 93 66 86 117
163 185 280 29 50 59 99 65 109 72 118 77 127 195 376 82 173 110 237 120 271
6 19 23 66 37 104 65 172 110 308 123 370 6 28 20 88 32 135 12 47 27 110 34
141 8 31 18 72 24 90 6 19 14 66 17 104 4 39 12 104 20 145 17 91 31 225 45
430 8 111 10 3427 8 11735 -3 10949 -4 11589 -21 11740 -10 88 -24 192 -32
230 -7 39 -16 102 -20 140 -3 39 -12 93 -20 120 -7 28 -19 73 -25 100 -59 258
-95 380 -185 620 -14 39 -30 84 -34 100 -10 36 -64 157 -152 341 -22 45 -39
84 -39 88 0 9 -256 447 -292 500 -7 10 -31 42 -53 71 -22 30 -49 66 -60 81
-11 15 -38 51 -60 80 -22 29 -47 62 -55 74 -31 46 -71 94 -157 187 -48 53 -99
108 -111 122 -64 70 -118 124 -208 206 -54 50 -105 97 -114 105 -77 71 -177
153 -290 238 -238 177 -272 200 -391 271 -75 44 -87 51 -144 87 -27 18 -108
60 -180 94 -71 34 -185 89 -252 121 -67 33 -127 59 -135 59 -7 1 -31 9 -53 20
-22 11 -49 19 -60 20 -11 0 -29 6 -40 14 -11 7 -36 17 -55 21 -19 4 -46 13
-60 20 -39 21 -116 44 -377 115 -40 11 -80 20 -88 20 -8 0 -48 9 -88 19 -81
22 -215 47 -327 61 -41 5 -91 14 -110 20 -19 6 -141 15 -270 20 -273 11
-23068 10 -23370 0z m7937 -8102 c10 -18 25 -49 33 -68 7 -19 19 -42 27 -51 7
-8 13 -30 13 -47 0 -17 7 -48 16 -69 25 -57 32 -75 40 -103 3 -14 14 -43 24
-65 23 -55 40 -104 50 -143 5 -19 18 -44 29 -56 13 -14 21 -36 21 -59 0 -20 5
-39 10 -42 6 -3 10 -14 10 -23 0 -18 42 -128 54 -139 3 -3 6 -17 6 -29 0 -13
11 -44 25 -70 14 -26 25 -55 25 -64 0 -10 7 -31 15 -46 8 -16 15 -37 15 -46 0
-9 5 -20 10 -23 6 -3 10 -15 10 -27 0 -11 7 -34 16 -51 30 -58 34 -67 34 -81
0 -8 11 -37 25 -64 14 -28 25 -54 25 -60 0 -12 24 -22 55 -22 13 0 27 -4 30
-10 3 -5 23 -10 43 -10 20 0 46 -7 56 -15 11 -8 31 -15 45 -15 25 0 44 -5 137
-34 29 -9 62 -16 76 -16 13 0 57 -11 98 -24 41 -14 92 -28 113 -31 20 -4 40
-11 43 -16 3 -5 29 -9 58 -9 43 0 60 5 89 28 20 15 53 38 72 52 20 14 80 63
132 110 52 47 103 90 113 95 10 6 45 36 78 68 33 31 65 57 70 57 6 0 41 29 79
65 37 36 71 65 75 65 11 0 151 115 233 192 39 37 89 79 110 93 21 15 59 47 86
72 80 76 91 78 165 42 34 -17 71 -40 80 -50 9 -10 25 -19 34 -19 10 0 23 -7
30 -15 7 -8 17 -15 22 -15 6 0 23 -11 40 -25 16 -14 35 -25 42 -25 7 0 21 -8
32 -18 19 -18 69 -46 169 -95 28 -14 57 -32 64 -41 7 -9 19 -16 26 -16 8 0 26
-10 42 -23 15 -12 45 -30 66 -40 20 -9 54 -25 75 -34 20 -10 51 -28 68 -40 17
-13 36 -23 41 -23 6 0 16 -7 23 -15 7 -8 20 -15 30 -15 9 0 24 -8 34 -19 9
-10 36 -27 59 -37 23 -10 57 -31 75 -46 18 -15 37 -28 42 -28 14 0 12 -114 -2
-128 -11 -11 -15 -31 -38 -172 -12 -74 -26 -139 -39 -173 -6 -16 -11 -48 -11
-72 0 -24 -4 -47 -10 -50 -5 -3 -10 -31 -10 -61 0 -31 -5 -65 -12 -77 -7 -12
-15 -60 -19 -107 -8 -101 -27 -218 -40 -242 -5 -10 -9 -45 -9 -77 0 -33 -4
-63 -10 -66 -5 -3 -10 -24 -10 -46 0 -22 -7 -56 -15 -76 -8 -19 -15 -62 -15
-94 0 -32 -4 -61 -10 -64 -5 -3 -10 -13 -10 -20 0 -17 209 -225 226 -225 11 0
172 -166 244 -252 25 -30 60 -66 79 -81 31 -24 39 -26 95 -20 33 3 65 9 71 14
5 5 33 9 62 9 29 0 61 4 71 9 27 14 154 41 189 41 17 0 35 5 38 10 3 6 23 10
43 10 20 1 48 7 62 15 15 9 53 14 96 15 38 0 74 4 80 9 5 5 36 12 69 14 103 9
239 29 257 38 10 5 39 10 65 10 26 1 57 8 68 16 11 7 46 13 82 13 34 0 65 5
68 10 3 6 41 10 84 10 l77 0 44 -87 c24 -49 55 -102 67 -119 13 -17 23 -36 23
-41 0 -6 7 -16 16 -24 9 -7 31 -42 50 -78 19 -36 43 -79 54 -96 11 -16 26 -43
34 -60 20 -40 74 -134 92 -159 8 -11 14 -26 14 -34 0 -7 11 -28 25 -46 14 -18
25 -37 25 -43 0 -5 9 -18 20 -28 11 -10 22 -27 26 -39 4 -11 21 -43 39 -71 18
-27 41 -66 51 -85 11 -19 29 -49 42 -67 15 -21 22 -45 22 -75 0 -39 -5 -49
-50 -93 -27 -27 -50 -55 -50 -62 0 -6 -9 -18 -21 -26 -11 -8 -30 -29 -43 -46
-13 -17 -55 -64 -94 -106 -40 -41 -72 -80 -72 -85 0 -6 -20 -31 -45 -56 -24
-25 -55 -67 -67 -92 -13 -26 -29 -53 -35 -60 -19 -20 -16 -38 12 -56 20 -13
57 -16 217 -16 152 0 199 -3 222 -15 22 -12 72 -15 242 -15 131 0 215 -4 219
-10 4 -6 77 -10 183 -11 197 -1 398 -11 727 -34 264 -19 404 -26 1255 -63 118
-6 251 -15 295 -20 44 -6 213 -14 375 -18 162 -3 300 -10 305 -14 6 -4 107
-10 225 -13 118 -3 231 -11 250 -17 19 -5 119 -10 222 -10 103 0 189 -4 192
-9 3 -4 157 -11 343 -16 185 -4 347 -11 360 -16 14 -5 100 -9 192 -9 109 0
171 -4 178 -11 12 -12 290 -27 653 -35 113 -3 209 -9 214 -14 6 -6 86 -10 181
-10 103 -1 201 -6 250 -15 48 -9 145 -15 240 -15 89 0 165 -4 170 -9 6 -5 78
-12 160 -15 237 -8 870 -33 873 -35 9 -5 0 -71 -10 -72 -87 -4 -10553 -7
-10579 -3 -33 5 -39 12 -68 68 -17 34 -31 67 -31 73 0 5 -11 30 -23 54 -13 24
-27 55 -30 69 -4 14 -18 38 -32 54 -14 16 -37 54 -53 84 -51 102 -60 118 -76
131 -9 8 -16 18 -16 23 0 6 -11 23 -25 40 -14 16 -25 40 -25 52 0 12 -11 33
-25 46 -14 13 -25 29 -25 36 0 7 -11 26 -25 42 -14 17 -25 33 -25 37 0 4 -18
27 -40 51 -22 24 -40 48 -40 54 0 6 -11 23 -25 38 -14 15 -25 32 -25 38 0 6
-11 21 -25 34 -14 13 -25 29 -25 35 0 6 -14 24 -31 41 -18 16 -46 52 -64 79
-44 66 -124 143 -154 147 -18 2 -27 12 -33 33 -5 21 -68 91 -197 220 -105 104
-197 192 -205 195 -8 3 -36 25 -63 50 -26 25 -66 58 -88 73 -80 55 -111 79
-140 108 -17 16 -37 29 -44 29 -7 0 -28 12 -46 28 -18 15 -56 43 -85 62 -28
19 -64 45 -78 56 -15 12 -41 24 -58 28 -17 4 -46 22 -64 41 -19 19 -38 35 -44
35 -5 0 -24 11 -42 25 -18 14 -39 25 -48 25 -8 0 -18 4 -21 10 -3 5 -23 17
-43 26 -85 38 -169 76 -194 90 -14 8 -45 14 -67 14 -34 0 -43 4 -50 23 -10 26
-119 83 -216 113 -33 10 -64 22 -69 26 -6 4 -16 8 -23 8 -7 0 -31 11 -53 25
-22 14 -50 25 -63 25 -13 0 -27 3 -31 7 -9 10 -79 32 -131 43 -42 8 -97 26
-127 41 -10 5 -30 9 -45 9 -16 0 -41 7 -57 15 -15 8 -43 15 -62 15 -18 0 -35
4 -38 9 -3 5 -38 12 -78 16 -40 4 -79 11 -88 16 -22 12 -125 30 -200 36 -36 2
-69 9 -75 14 -5 5 -52 9 -105 9 -52 1 -112 7 -132 14 -21 8 -42 10 -50 5 -18
-12 -116 -11 -123 1 -8 12 -581 14 -589 2 -3 -5 -83 -12 -178 -16 -94 -4 -177
-11 -183 -16 -5 -4 -44 -10 -85 -13 -41 -2 -109 -12 -150 -21 -41 -10 -107
-22 -147 -29 -39 -7 -75 -15 -79 -19 -4 -5 -22 -8 -40 -8 -18 0 -48 -6 -66
-14 -50 -21 -98 -34 -151 -42 -26 -3 -50 -10 -53 -15 -3 -5 -18 -9 -34 -9 -16
0 -31 -4 -35 -9 -3 -5 -20 -13 -37 -17 -31 -6 -40 -10 -88 -34 -11 -5 -25 -10
-31 -10 -5 0 -34 -11 -62 -24 -29 -13 -67 -27 -84 -30 -18 -4 -35 -12 -38 -17
-4 -5 -14 -9 -25 -9 -10 0 -62 -22 -116 -48 -267 -132 -310 -152 -318 -152 -5
0 -36 -17 -70 -38 -34 -20 -82 -48 -108 -60 -26 -13 -50 -27 -53 -32 -3 -5
-28 -21 -56 -35 -28 -14 -69 -40 -92 -57 -23 -18 -49 -37 -58 -43 -55 -34
-119 -81 -119 -87 0 -5 -8 -8 -18 -8 -10 0 -31 -14 -48 -31 -16 -17 -51 -46
-79 -65 -93 -63 -100 -69 -125 -91 -14 -13 -29 -23 -35 -23 -23 0 -581 -563
-630 -636 -22 -32 -65 -88 -96 -124 -31 -36 -65 -81 -75 -100 -10 -19 -44 -64
-75 -100 -31 -36 -68 -87 -83 -115 -16 -27 -34 -57 -42 -66 -8 -8 -14 -19 -14
-23 0 -4 -10 -22 -23 -39 -33 -48 -41 -62 -106 -187 -150 -292 -231 -457 -231
-473 0 -5 -14 -39 -31 -76 -17 -36 -40 -84 -50 -107 -10 -22 -19 -46 -19 -52
0 -6 -11 -35 -24 -64 -24 -54 -44 -119 -52 -173 -3 -16 -9 -39 -13 -50 -24
-61 -56 -178 -68 -253 -3 -18 -9 -35 -14 -38 -5 -3 -9 -24 -9 -47 0 -23 -7
-55 -15 -71 -8 -15 -15 -50 -15 -77 0 -26 -4 -50 -9 -53 -5 -3 -12 -51 -16
-106 -4 -55 -11 -103 -16 -106 -5 -3 -9 -41 -9 -85 0 -46 -7 -101 -16 -128
-13 -41 -15 -110 -12 -489 2 -336 6 -444 16 -454 7 -7 12 -41 12 -89 0 -43 4
-80 9 -83 4 -3 11 -41 14 -84 2 -44 10 -89 16 -100 6 -11 11 -52 11 -89 0 -38
5 -74 10 -79 6 -6 15 -35 21 -65 10 -52 15 -77 39 -184 17 -74 43 -159 52
-169 4 -6 8 -22 8 -37 0 -15 4 -30 9 -33 5 -4 12 -29 16 -56 4 -27 11 -52 16
-56 5 -3 9 -12 9 -20 0 -9 13 -45 30 -81 16 -35 30 -69 30 -74 0 -5 16 -43 35
-85 19 -41 35 -81 35 -87 0 -11 233 -480 271 -547 8 -14 33 -52 54 -84 22 -32
54 -82 70 -111 35 -60 77 -121 120 -173 17 -21 51 -68 77 -107 25 -38 58 -81
72 -94 14 -14 26 -29 26 -35 1 -6 30 -42 65 -81 36 -38 65 -74 65 -80 0 -5 17
-23 37 -40 19 -16 59 -54 87 -82 197 -201 337 -337 406 -393 44 -36 103 -83
130 -105 50 -41 119 -92 152 -111 10 -6 33 -24 51 -40 18 -16 45 -36 59 -44
43 -25 112 -72 126 -87 7 -7 18 -13 25 -13 6 0 20 -9 31 -19 12 -11 65 -42
118 -69 53 -27 109 -59 124 -71 15 -12 35 -21 46 -21 10 0 31 -11 46 -25 15
-14 30 -25 34 -25 4 0 39 -16 79 -35 39 -19 80 -37 92 -40 19 -6 112 -49 260
-121 26 -13 64 -26 85 -30 20 -4 42 -10 47 -14 6 -3 29 -12 51 -18 23 -7 47
-19 54 -27 7 -9 29 -15 51 -15 21 0 41 -4 44 -10 3 -5 16 -10 29 -10 12 0 31
-7 42 -15 10 -8 30 -15 44 -15 15 0 30 -4 35 -9 6 -4 42 -13 80 -19 39 -6 97
-20 130 -31 33 -11 78 -21 100 -21 23 0 45 -4 50 -9 6 -6 57 -13 115 -17 58
-4 111 -12 119 -18 8 -6 53 -14 100 -19 47 -4 133 -12 191 -18 151 -15 801
-22 814 -9 5 5 52 10 102 10 51 0 96 5 99 10 3 6 42 10 85 10 52 0 83 4 92 13
8 9 53 16 123 20 60 4 114 12 119 17 6 6 25 10 43 10 18 0 41 4 51 9 9 5 69
18 132 31 63 12 120 25 125 30 6 4 24 10 40 13 31 5 88 24 117 38 10 5 26 9
36 9 10 0 22 3 26 7 8 8 55 26 146 55 36 11 69 24 75 29 5 5 16 9 24 9 9 0 38
11 66 24 85 41 122 56 138 56 8 0 20 7 27 14 13 17 90 56 108 56 18 0 148 68
162 85 7 8 23 15 36 15 12 0 29 7 38 15 8 8 21 15 29 15 8 0 20 7 28 16 15 18
102 64 121 64 7 0 25 11 39 24 14 13 60 46 101 72 139 90 183 121 197 137 7
10 18 17 24 17 5 0 29 18 53 40 24 22 49 40 55 40 7 0 30 16 53 35 23 20 62
53 87 75 25 22 51 40 56 40 14 0 377 359 392 388 6 12 16 22 21 22 13 0 63 50
99 100 31 43 58 75 156 187 30 35 55 68 55 75 0 6 10 22 21 34 12 13 27 32 33
42 20 35 71 103 103 141 18 21 37 48 43 62 6 13 18 36 28 50 78 117 98 152
143 237 28 53 57 104 65 113 8 8 14 19 14 24 0 4 11 23 26 42 14 18 22 38 19
43 -3 6 2 22 13 38 11 15 25 44 31 64 7 20 19 42 27 48 7 7 14 18 14 25 0 8
12 23 26 34 l27 21 2393 0 c1610 0 2395 3 2399 10 4 6 12 7 18 3 7 -5 1348
-10 2980 -13 2814 -5 2969 -6 2978 -22 7 -12 22 -18 44 -18 57 0 40 -20 -17
-21 -29 -1 -118 -5 -198 -10 -80 -5 -235 -13 -345 -18 -110 -6 -209 -15 -220
-20 -11 -6 -110 -13 -220 -15 -403 -9 -801 -26 -856 -36 -30 -5 -130 -10 -221
-10 -99 0 -178 -5 -195 -11 -16 -6 -122 -14 -246 -17 -120 -2 -220 -9 -223
-13 -3 -5 -88 -9 -190 -9 -102 0 -193 -4 -202 -9 -9 -5 -99 -11 -199 -12 -128
-3 -186 -8 -195 -16 -9 -10 -67 -13 -218 -13 -113 0 -210 -4 -215 -9 -6 -5
-103 -11 -217 -13 -135 -3 -211 -8 -220 -16 -10 -8 -103 -12 -308 -13 -210 -1
-304 -5 -330 -14 -23 -8 -90 -13 -186 -13 -82 0 -266 -6 -409 -12 -143 -7
-332 -15 -420 -19 -88 -3 -164 -9 -170 -12 -5 -4 -104 -10 -220 -14 -115 -4
-232 -11 -259 -16 -27 -5 -102 -9 -167 -9 -68 0 -120 -4 -124 -10 -4 -6 -104
-10 -268 -10 -213 0 -267 -3 -291 -15 -22 -12 -71 -15 -232 -15 -124 0 -205
-4 -209 -10 -4 -6 -67 -10 -153 -11 -81 0 -232 -5 -337 -11 -104 -6 -271 -13
-370 -17 -174 -6 -180 -7 -183 -27 -3 -21 8 -33 66 -73 11 -8 22 -26 25 -40 3
-14 42 -65 87 -113 45 -48 93 -104 106 -124 14 -20 46 -59 72 -86 26 -27 49
-55 51 -61 2 -7 30 -41 63 -76 50 -56 58 -69 58 -104 0 -27 -8 -51 -25 -73
-14 -18 -25 -36 -25 -40 0 -4 -10 -21 -23 -38 -12 -17 -31 -49 -42 -71 -11
-22 -27 -49 -36 -60 -10 -11 -27 -40 -40 -65 -12 -25 -29 -53 -37 -62 -8 -9
-36 -61 -64 -115 -27 -54 -56 -105 -63 -113 -7 -8 -22 -33 -33 -55 -41 -84
-94 -180 -102 -185 -4 -3 -19 -28 -33 -57 -15 -28 -31 -54 -36 -57 -5 -4 -21
-30 -35 -59 -13 -28 -38 -65 -55 -81 l-30 -29 -73 13 c-40 7 -100 15 -133 17
-33 3 -66 10 -74 16 -13 11 -77 22 -191 33 -30 3 -59 10 -65 15 -5 5 -26 9
-46 9 -20 0 -56 7 -79 15 -23 8 -60 15 -81 15 -21 0 -41 5 -44 10 -3 5 -30 10
-58 10 -30 0 -60 7 -71 15 -13 10 -43 15 -81 15 -34 0 -66 5 -73 12 -9 9 -18
9 -38 -1 -16 -7 -30 -8 -38 -2 -12 10 -111 29 -191 38 -27 3 -54 9 -60 14 -5
5 -36 9 -70 9 l-60 0 -284 -284 c-268 -268 -283 -285 -277 -312 4 -16 11 -54
14 -84 4 -30 12 -62 17 -70 5 -8 13 -42 18 -75 32 -238 44 -311 57 -335 5 -10
10 -45 10 -78 0 -33 7 -79 15 -102 8 -23 15 -64 15 -91 0 -26 5 -51 10 -54 6
-3 10 -27 10 -53 0 -26 7 -65 15 -87 8 -22 14 -57 15 -77 0 -20 5 -40 10 -43
6 -3 10 -30 10 -60 0 -30 5 -57 10 -60 6 -3 10 -30 10 -58 0 -31 6 -62 16 -75
9 -14 14 -38 12 -63 -3 -39 -6 -42 -68 -76 -36 -20 -92 -54 -125 -76 -33 -22
-69 -43 -80 -48 -11 -5 -40 -21 -64 -34 -24 -14 -50 -25 -57 -25 -7 0 -39 -18
-70 -40 -32 -22 -62 -40 -67 -40 -6 0 -18 -6 -26 -14 -9 -8 -50 -32 -93 -54
-42 -22 -87 -47 -100 -56 -56 -40 -107 -71 -163 -100 -33 -17 -74 -41 -92 -53
-17 -13 -35 -23 -41 -23 -5 0 -15 -7 -22 -16 -13 -14 -86 -54 -100 -54 -4 0
-33 23 -64 50 -31 28 -60 50 -64 50 -4 0 -35 27 -67 60 -33 33 -65 60 -70 60
-6 0 -37 25 -70 55 -33 30 -65 55 -70 55 -6 0 -37 27 -70 60 -33 33 -64 60
-70 60 -6 0 -24 14 -40 30 -16 17 -35 30 -43 30 -8 0 -51 36 -96 79 -98 96
-148 141 -159 141 -4 0 -34 25 -67 55 -33 30 -63 55 -67 55 -5 1 -37 27 -71
59 -81 75 -126 100 -150 85 -10 -7 -38 -15 -62 -18 -25 -4 -61 -13 -80 -20
-19 -8 -55 -19 -80 -26 -25 -7 -54 -16 -65 -21 -51 -22 -113 -39 -142 -39 -17
0 -34 -4 -37 -9 -4 -5 -40 -12 -81 -16 -42 -4 -78 -11 -81 -16 -3 -5 -16 -9
-30 -9 -37 0 -94 -27 -94 -45 0 -9 -6 -26 -14 -38 -8 -12 -26 -58 -41 -102
-14 -44 -37 -103 -50 -131 -14 -28 -25 -56 -25 -63 0 -6 -9 -30 -19 -54 -11
-23 -29 -70 -40 -105 -12 -34 -30 -82 -40 -105 -10 -23 -27 -67 -36 -97 -21
-66 -33 -96 -51 -132 -8 -14 -14 -35 -14 -46 0 -12 -4 -23 -9 -27 -6 -3 -13
-26 -17 -50 -3 -25 -10 -48 -15 -51 -5 -3 -9 -14 -9 -26 0 -11 -7 -34 -16 -51
-28 -53 -31 -61 -38 -95 -4 -17 -12 -34 -17 -37 -5 -4 -9 -16 -9 -28 0 -12
-11 -44 -24 -72 -13 -27 -27 -63 -32 -80 -13 -42 -75 -71 -114 -55 -21 9 -34
9 -49 0 -15 -7 -134 -9 -409 -6 -213 2 -394 4 -402 4 -96 -2 -297 3 -343 8
-56 6 -58 7 -77 49 -11 24 -20 51 -20 59 0 8 -4 18 -10 21 -5 3 -10 18 -10 33
0 15 -6 37 -14 48 -8 11 -22 44 -31 74 -9 30 -20 64 -25 75 -4 11 -15 40 -25
65 -10 25 -21 54 -25 65 -4 11 -15 36 -24 57 -9 20 -16 43 -16 51 0 9 -4 18
-9 21 -5 3 -11 18 -14 33 -7 38 -24 85 -64 171 -18 40 -33 81 -33 90 0 9 -7
26 -15 36 -8 11 -15 28 -15 38 0 10 -9 37 -19 61 -11 23 -29 71 -41 106 -11
35 -30 82 -41 104 -10 23 -19 50 -19 62 0 11 -9 37 -20 58 -11 20 -20 45 -20
55 0 22 -36 41 -100 54 -60 12 -197 38 -238 45 -18 3 -35 9 -38 14 -3 5 -17 9
-32 9 -15 0 -40 7 -56 15 -15 8 -37 15 -47 15 -11 0 -27 4 -37 9 -33 17 -88
33 -144 45 -31 6 -60 14 -64 18 -21 22 -65 -2 -159 -84 -23 -21 -46 -38 -50
-38 -4 0 -56 -45 -115 -100 -59 -55 -111 -100 -115 -100 -4 0 -39 -29 -77 -65
-39 -36 -75 -65 -81 -65 -6 0 -36 -24 -68 -52 -103 -93 -153 -135 -178 -149
-14 -8 -51 -39 -84 -69 -32 -30 -67 -59 -77 -65 -10 -5 -58 -46 -106 -90 -84
-76 -124 -105 -147 -105 -6 0 -20 9 -31 19 -12 11 -44 31 -72 45 -28 14 -57
33 -64 41 -7 8 -21 15 -31 15 -10 0 -21 4 -24 10 -3 5 -21 17 -40 26 -19 9
-35 20 -35 25 0 5 -5 9 -11 9 -6 0 -39 17 -73 37 -90 56 -96 59 -153 88 -29
14 -55 31 -58 36 -4 5 -21 16 -38 24 -18 8 -50 28 -72 44 -22 16 -52 32 -67
35 -15 3 -45 17 -68 31 -22 14 -46 25 -53 25 -8 0 -22 10 -33 21 -10 12 -26
24 -34 28 -9 3 -52 29 -97 56 -91 56 -102 76 -82 150 6 22 15 78 20 125 5 47
13 101 19 120 6 19 12 59 15 89 2 29 9 58 14 65 5 6 12 40 14 76 9 111 27 234
37 258 6 13 10 45 10 71 0 27 7 62 15 77 8 16 15 50 15 76 0 26 5 50 10 53 6
3 10 35 10 70 0 35 5 67 10 70 6 3 10 27 10 53 0 26 7 60 15 76 8 15 15 48 15
72 0 24 6 53 12 64 12 18 -12 45 -272 305 l-285 285 -62 0 c-34 0 -65 -4 -68
-10 -3 -5 -26 -10 -50 -10 -24 0 -46 -4 -49 -9 -6 -10 -121 -24 -183 -22 -23
1 -45 -3 -48 -9 -3 -5 -30 -10 -58 -10 -29 -1 -63 -7 -77 -15 -14 -8 -51 -14
-82 -15 -31 0 -60 -4 -63 -10 -3 -5 -23 -10 -44 -10 -21 0 -52 -7 -67 -15 -16
-8 -47 -15 -69 -15 -23 0 -45 -4 -50 -9 -6 -5 -39 -12 -75 -14 -101 -8 -191
-24 -203 -36 -6 -6 -35 -11 -65 -11 -29 0 -85 -7 -123 -16 -92 -21 -118 -11
-162 62 -17 30 -35 54 -39 54 -5 0 -8 9 -8 20 0 22 -22 68 -57 117 -13 17 -23
35 -23 40 0 5 -11 20 -25 33 -14 13 -25 30 -25 38 0 20 -30 81 -57 118 -13 17
-23 35 -23 39 0 5 -6 16 -14 24 -13 15 -30 44 -113 201 -19 36 -42 70 -50 76
-7 7 -30 43 -50 80 -20 38 -42 81 -50 97 -8 15 -23 32 -34 37 -11 6 -19 21
-19 35 0 13 -5 27 -10 30 -18 11 -11 71 10 90 11 10 20 23 20 30 0 6 16 27 36
46 19 18 45 50 56 69 12 19 42 58 68 85 26 28 49 55 51 61 2 6 47 57 99 114
52 56 97 108 100 115 3 7 25 35 50 62 25 26 58 66 73 88 60 87 81 113 143 176
35 37 64 71 64 76 0 5 12 20 27 34 16 14 39 43 53 63 14 21 31 43 38 49 19 17
29 28 58 65 22 27 25 37 17 60 -19 52 -32 97 -39 135 -3 20 -10 40 -15 43 -5
3 -9 17 -9 32 0 15 -7 36 -15 46 -8 11 -15 32 -15 47 0 15 -4 31 -10 34 -5 3
-10 21 -10 39 0 19 -7 47 -15 62 -8 16 -15 43 -15 61 0 17 -4 35 -10 38 -6 3
-10 19 -10 35 0 16 -4 31 -9 34 -4 3 -11 25 -14 49 -3 23 -13 56 -21 72 -16
30 -68 64 -100 65 -10 0 -40 11 -68 25 -27 14 -56 25 -64 25 -8 0 -22 4 -32
10 -50 28 -128 60 -148 60 -12 0 -27 6 -33 14 -6 7 -28 16 -49 18 -21 3 -58
15 -82 27 -24 11 -50 21 -57 21 -10 0 -72 26 -143 60 -9 4 -31 11 -50 15 -19
4 -41 11 -50 15 -40 21 -90 40 -103 40 -9 0 -19 5 -22 10 -3 6 -18 10 -33 10
-15 0 -36 7 -46 15 -11 8 -30 15 -43 15 -13 0 -45 11 -72 24 -27 13 -66 27
-87 30 -37 7 -44 10 -101 40 -17 9 -40 16 -51 16 -11 0 -23 7 -26 16 -8 20 -8
1328 0 1348 3 9 16 16 28 16 12 0 31 7 42 15 10 8 28 15 40 15 11 0 40 9 63
21 24 11 71 29 105 40 33 10 70 23 81 28 11 4 45 16 75 26 30 9 71 24 90 33
47 21 130 53 155 59 11 2 29 8 40 13 11 5 29 11 40 13 22 6 149 52 180 66 11
5 36 15 55 21 43 16 81 31 143 59 27 12 62 24 78 28 16 3 32 10 35 14 3 5 15
9 28 9 12 0 31 7 42 15 10 8 28 15 38 15 33 0 94 32 105 54 11 22 29 104 38
171 3 22 9 44 14 50 5 5 9 21 9 35 0 14 7 35 15 46 8 10 15 36 15 56 0 20 5
40 10 43 6 3 10 19 10 34 0 15 5 32 12 39 6 6 14 30 18 54 8 43 25 98 41 130
5 10 9 27 9 38 0 11 5 28 11 38 9 15 5 28 -24 72 -19 30 -58 77 -86 105 -28
27 -51 54 -51 60 0 5 -40 53 -90 105 -49 52 -89 100 -90 106 0 6 -11 21 -25
34 -14 13 -25 28 -25 33 0 5 -29 42 -65 82 -36 40 -65 77 -65 81 0 5 -12 20
-27 34 -14 14 -37 42 -50 63 -13 21 -35 43 -48 49 -14 6 -25 17 -25 25 0 8
-28 45 -62 83 -83 92 -129 147 -150 179 -9 14 -35 46 -57 70 -23 25 -41 48
-41 53 0 24 119 234 141 248 4 3 11 19 15 35 4 17 16 41 26 55 33 44 63 92
117 195 30 55 67 115 82 133 16 18 29 38 29 45 0 26 66 146 83 151 9 2 17 12
17 21 0 10 18 46 40 81 22 35 40 68 40 74 0 15 50 93 69 107 19 15 137 17 146
3 3 -5 32 -10 64 -10 31 0 61 -4 67 -10 5 -5 39 -12 74 -15 36 -3 74 -9 85
-14 21 -9 161 -30 260 -38 33 -2 64 -9 69 -14 6 -5 33 -9 61 -9 28 0 57 -6 63
-12 7 -7 43 -16 80 -20 37 -4 90 -12 117 -17 28 -6 80 -16 117 -23 36 -7 70
-16 74 -21 4 -4 30 -7 59 -7 28 0 55 -4 61 -9 5 -5 41 -11 80 -15 l70 -6 110
113 c60 62 117 125 127 140 10 15 23 27 30 27 7 0 79 67 161 149 133 133 147
150 137 169 -6 11 -11 45 -11 74 0 30 -6 62 -14 73 -8 11 -17 46 -20 78 -3 31
-9 83 -12 115 -3 31 -10 61 -15 66 -5 6 -9 30 -9 55 -1 26 -7 64 -15 86 -8 22
-15 54 -15 71 0 17 -3 34 -7 38 -5 4 -13 58 -20 119 -19 173 -28 231 -37 246
-9 14 -16 57 -37 241 -6 52 -15 104 -21 114 -11 20 -14 139 -4 155 4 5 19 12
35 16 16 3 35 12 41 20 6 7 48 32 93 55 45 23 107 59 137 80 30 22 59 39 64
39 15 1 100 45 118 61 15 14 59 38 98 54 21 9 50 27 87 54 17 12 34 22 37 22
4 0 25 12 49 27 23 14 67 40 97 56 30 16 62 35 70 42 8 7 38 25 65 40 28 14
68 40 90 55 62 45 80 41 165 -45 41 -41 81 -75 89 -75 8 0 45 -28 82 -62 111
-103 238 -212 257 -220 43 -20 78 -46 89 -68 6 -13 21 -28 32 -34 11 -6 60
-48 109 -93 50 -46 94 -83 98 -83 4 0 26 -17 50 -37 23 -21 79 -67 124 -103
44 -36 101 -83 126 -104 39 -34 48 -38 65 -28 10 7 30 12 43 12 14 0 27 4 30
9 4 5 25 12 48 16 23 4 49 11 58 15 8 4 51 15 95 24 44 9 101 23 126 31 26 8
58 15 72 15 14 0 29 5 32 10 3 6 23 10 44 10 20 0 46 7 57 15 10 8 30 15 45
15 14 0 29 4 35 9 5 5 22 11 38 13 29 3 63 44 65 76 1 8 8 30 17 50 48 109
114 283 114 299 0 8 16 47 35 86 19 39 35 79 35 88 0 10 6 30 14 46 26 51 66
158 66 175 0 9 5 20 10 23 6 3 10 13 10 22 0 8 7 31 16 51 17 38 20 48 49 122
9 25 21 52 25 60 4 9 11 31 15 50 4 19 10 40 14 45 4 6 15 37 25 70 36 116 50
150 73 183 l24 32 659 0 658 0 19 -32z m-253 -2969 c6 -5 45 -9 87 -9 43 0 80
-4 83 -9 3 -4 33 -11 67 -14 34 -3 66 -10 72 -16 6 -6 33 -11 60 -11 54 0 212
-27 239 -41 10 -5 30 -9 45 -9 16 -1 39 -7 53 -15 14 -8 37 -14 52 -15 15 0
30 -4 33 -10 3 -5 19 -10 34 -10 15 0 31 -4 36 -9 6 -5 37 -14 70 -20 32 -6
64 -16 69 -21 6 -6 22 -10 37 -10 15 0 31 -4 34 -10 3 -5 15 -10 27 -10 11 0
34 -7 51 -16 59 -31 67 -34 84 -34 10 0 38 -11 62 -25 23 -14 49 -25 56 -25 7
0 18 -7 25 -15 7 -8 25 -15 40 -15 15 0 33 -7 41 -16 7 -8 69 -43 138 -76 69
-33 140 -71 158 -84 17 -13 36 -24 41 -24 4 0 19 -11 32 -25 14 -15 35 -25 51
-25 14 0 32 -7 39 -15 7 -8 18 -15 25 -15 7 0 19 -7 26 -17 8 -9 28 -22 44
-30 45 -20 121 -66 142 -84 10 -9 28 -20 41 -23 12 -4 22 -14 22 -21 0 -8 24
-26 53 -39 28 -14 77 -50 107 -81 30 -30 59 -55 66 -55 6 0 61 -47 122 -105
60 -58 114 -105 119 -105 15 0 311 -304 318 -327 3 -13 35 -51 71 -85 35 -34
64 -67 64 -73 0 -6 20 -30 44 -54 24 -24 56 -67 70 -96 15 -28 41 -65 57 -81
17 -16 39 -45 49 -64 10 -19 27 -44 39 -54 12 -11 21 -24 21 -29 0 -6 10 -24
23 -41 12 -17 29 -44 37 -61 8 -16 31 -51 52 -76 21 -26 38 -52 38 -59 0 -6 6
-24 14 -38 48 -92 96 -196 96 -208 0 -12 -78 -14 -529 -14 l-529 0 -6 45 -7
45 -54 0 c-30 0 -57 -4 -60 -10 -3 -5 -30 -10 -60 -10 -30 0 -57 -4 -60 -10
-3 -5 -28 -10 -54 -10 -27 0 -62 -7 -77 -15 -16 -8 -48 -15 -71 -15 -23 0 -45
-4 -48 -10 -3 -5 -36 -10 -72 -10 -36 0 -83 -5 -103 -11 -77 -23 -103 -9 -245
132 -72 71 -136 129 -143 129 -15 0 -16 66 -2 75 6 3 10 30 10 60 0 30 5 57
10 60 6 3 10 25 10 48 0 23 5 58 11 77 14 43 27 112 39 210 6 41 15 88 20 104
6 16 10 43 10 60 0 18 5 37 11 43 15 15 4 30 -36 51 -173 88 -205 106 -205
113 0 4 -10 11 -22 15 -13 4 -36 17 -51 30 -16 13 -36 24 -44 24 -9 0 -30 10
-47 23 -56 42 -106 60 -152 54 -45 -5 -81 -31 -223 -163 -36 -34 -73 -65 -82
-70 -10 -5 -56 -45 -104 -89 -48 -44 -96 -83 -105 -87 -10 -4 -21 -16 -25 -27
-5 -16 -15 -21 -44 -21 -20 0 -41 4 -47 10 -10 10 -77 27 -144 37 -19 2 -49
11 -67 19 -17 8 -44 14 -60 14 -19 0 -38 9 -54 28 -25 27 -59 93 -59 113 0 6
-16 43 -35 82 -19 39 -35 81 -35 93 0 13 -4 25 -9 29 -5 3 -13 20 -17 37 -3
18 -10 39 -14 48 -21 40 -40 90 -40 103 0 9 -4 18 -9 21 -5 3 -11 18 -14 33
-2 16 -10 42 -16 58 -6 17 -13 42 -16 58 l-5 27 -314 0 -314 0 -31 -63 c-17
-35 -31 -73 -31 -85 0 -11 -4 -24 -10 -27 -5 -3 -10 -16 -10 -29 0 -12 -7 -31
-15 -42 -8 -10 -15 -27 -15 -37 0 -9 -11 -40 -25 -69 -14 -28 -25 -59 -25 -67
0 -9 -12 -38 -25 -66 -14 -27 -25 -57 -25 -65 0 -9 -4 -20 -9 -25 -4 -6 -16
-35 -25 -65 -22 -68 -41 -90 -79 -90 -16 0 -43 -6 -60 -14 -18 -8 -48 -17 -67
-19 -67 -10 -134 -27 -144 -37 -15 -15 -69 -12 -102 5 -34 17 -65 43 -150 126
-34 32 -66 59 -72 59 -6 0 -45 33 -87 73 -43 39 -85 77 -95 82 -10 6 -39 30
-65 54 -51 48 -111 65 -143 40 -20 -17 -50 -34 -113 -66 -26 -12 -52 -30 -59
-38 -7 -8 -18 -15 -25 -15 -7 0 -18 -7 -25 -15 -7 -8 -19 -15 -28 -15 -8 0
-23 -6 -31 -14 -15 -14 -71 -46 -156 -90 -40 -21 -40 -22 -39 -76 1 -30 9 -91
18 -135 10 -44 21 -107 26 -140 4 -33 13 -78 19 -100 6 -22 11 -57 11 -77 0
-20 5 -40 10 -43 6 -3 10 -30 10 -60 0 -30 5 -57 10 -60 6 -3 10 -24 10 -45 0
-33 -7 -45 -45 -82 -119 -113 -183 -177 -210 -212 l-30 -38 -73 6 c-40 3 -81
10 -92 16 -10 5 -41 10 -69 10 -27 0 -53 5 -56 10 -3 6 -30 10 -59 10 -28 0
-56 4 -62 10 -5 5 -39 13 -74 16 -36 3 -74 9 -85 14 -22 10 -72 18 -150 26
l-50 5 -18 -50 c-9 -27 -28 -63 -41 -78 -12 -15 -33 -49 -45 -75 -13 -27 -27
-50 -32 -54 -5 -3 -17 -22 -28 -42 -50 -102 -72 -142 -80 -147 -19 -11 -52
-89 -47 -109 4 -12 29 -46 56 -76 28 -30 50 -59 50 -63 0 -5 19 -29 43 -55
194 -212 257 -286 257 -301 0 -6 10 -16 23 -22 13 -6 29 -26 36 -44 10 -30 9
-40 -9 -76 -11 -24 -20 -54 -20 -68 0 -14 -7 -39 -15 -55 -8 -15 -15 -39 -15
-52 0 -12 -4 -26 -10 -29 -5 -3 -10 -25 -10 -49 0 -28 -6 -48 -17 -58 -21 -18
-120 -64 -160 -74 -16 -4 -41 -15 -58 -23 -16 -9 -57 -25 -90 -35 -33 -10 -72
-24 -87 -32 -14 -8 -33 -14 -42 -14 -9 0 -24 -4 -34 -9 -42 -22 -130 -59 -167
-71 -22 -7 -46 -17 -52 -22 -10 -8 -13 -85 -13 -325 0 -290 1 -314 18 -319 9
-3 24 -9 32 -13 8 -4 42 -16 75 -25 53 -16 135 -49 187 -77 10 -5 25 -9 33 -9
9 0 35 -11 58 -23 23 -13 53 -26 67 -29 24 -6 71 -21 115 -39 11 -4 31 -11 45
-14 14 -4 40 -21 57 -38 26 -24 33 -39 33 -68 0 -21 4 -40 9 -43 5 -3 11 -20
14 -38 5 -33 22 -88 38 -120 5 -10 9 -29 9 -42 0 -14 5 -28 10 -31 21 -13 8
-42 -36 -85 -26 -25 -54 -57 -64 -73 -9 -15 -37 -49 -62 -75 -24 -26 -57 -66
-72 -90 -15 -23 -38 -47 -51 -52 -14 -5 -25 -15 -25 -22 0 -7 -18 -33 -40 -58
-22 -25 -40 -50 -40 -57 0 -7 -18 -30 -40 -52 -22 -22 -40 -48 -40 -59 0 -10
12 -41 26 -68 15 -27 42 -77 60 -111 18 -35 42 -75 53 -89 12 -15 21 -31 21
-36 0 -6 10 -23 23 -38 23 -29 45 -64 87 -140 l26 -45 77 -3 c57 -2 83 1 99
13 13 8 43 15 70 15 26 0 49 4 52 9 3 5 55 12 116 16 61 4 113 11 116 16 3 5
22 9 43 9 21 0 52 7 67 15 16 8 45 15 64 15 31 0 46 -11 130 -96 52 -52 107
-102 123 -110 15 -8 27 -21 27 -29 0 -8 9 -15 20 -15 11 0 23 -8 26 -17 3 -10
11 -28 17 -41 8 -17 8 -28 -1 -42 -7 -11 -12 -41 -12 -68 0 -26 -5 -53 -11
-59 -5 -5 -12 -34 -15 -64 -3 -30 -9 -58 -14 -63 -6 -6 -10 -34 -10 -62 0 -29
-4 -56 -10 -59 -5 -3 -10 -26 -10 -51 0 -25 -6 -57 -14 -72 -7 -15 -16 -62
-19 -104 -7 -76 -6 -77 23 -100 55 -44 85 -63 159 -100 40 -20 83 -45 95 -55
29 -24 63 -43 79 -43 8 0 25 -10 39 -22 13 -13 49 -36 80 -51 52 -27 57 -28
84 -14 16 9 47 32 69 52 22 20 52 44 67 54 15 9 48 36 75 60 141 124 285 249
311 268 42 32 76 38 113 19 18 -9 42 -16 54 -16 11 0 25 -4 30 -9 12 -11 90
-30 162 -40 29 -4 54 -9 56 -11 18 -25 38 -67 62 -130 16 -41 39 -95 52 -119
13 -24 23 -56 23 -71 0 -14 16 -59 36 -100 20 -40 39 -90 41 -112 3 -21 10
-41 14 -44 5 -3 9 -15 9 -28 0 -33 37 -104 61 -116 24 -14 585 -12 611 1 9 5
22 26 28 46 6 21 15 47 20 58 4 11 13 40 21 65 7 25 22 68 34 95 12 28 26 65
29 82 4 18 12 35 17 38 5 4 9 17 9 30 0 12 11 43 25 66 14 24 25 51 25 59 0 8
11 38 25 65 13 28 25 59 25 71 0 22 54 54 93 54 12 0 54 12 92 25 39 14 80 25
91 25 12 0 38 7 57 15 67 28 90 21 163 -47 36 -35 72 -65 79 -68 8 -3 53 -41
102 -85 48 -44 99 -88 113 -97 14 -9 48 -38 76 -64 91 -86 122 -102 161 -82
15 9 51 27 80 42 29 15 55 31 58 36 3 6 31 22 60 36 30 14 76 40 102 57 27 18
62 39 78 47 17 8 44 25 61 37 17 13 36 23 42 23 19 0 26 50 14 95 -6 22 -14
64 -18 93 -4 29 -11 55 -15 58 -5 3 -9 33 -9 68 0 34 -4 66 -10 72 -5 5 -12
36 -15 69 -3 32 -10 64 -15 69 -6 6 -10 38 -10 72 0 35 -4 66 -10 69 -5 3 -10
27 -10 53 0 47 0 47 128 173 70 69 141 132 159 138 32 13 101 11 223 -8 36 -5
108 -15 160 -21 52 -6 109 -15 126 -21 17 -5 46 -9 66 -9 20 0 52 -7 71 -15
38 -16 95 -20 112 -7 6 4 16 19 22 34 26 58 32 59 359 53 529 -9 669 -10 691
-1 42 16 36 -25 -20 -135 -29 -58 -62 -119 -73 -135 -11 -16 -29 -47 -39 -69
-11 -22 -26 -46 -32 -53 -7 -7 -13 -19 -13 -26 0 -8 -7 -19 -16 -27 -8 -7 -27
-36 -41 -63 -14 -28 -40 -67 -57 -87 -17 -20 -40 -51 -51 -69 -11 -19 -25 -42
-31 -52 -6 -10 -21 -29 -33 -42 -11 -12 -21 -27 -21 -33 0 -6 -11 -18 -25 -27
-14 -10 -34 -30 -44 -47 -10 -16 -36 -48 -58 -72 -21 -23 -44 -50 -49 -59 -5
-9 -34 -43 -64 -75 -31 -32 -71 -78 -90 -103 -19 -24 -53 -61 -75 -81 -117
-107 -234 -209 -240 -209 -4 0 -34 -26 -67 -57 -33 -32 -65 -60 -72 -63 -7 -3
-39 -28 -72 -57 -32 -28 -75 -63 -94 -77 -19 -13 -59 -42 -89 -63 -83 -59
-104 -72 -133 -84 -16 -6 -28 -15 -28 -20 0 -5 -8 -9 -18 -9 -10 0 -29 -11
-42 -25 -13 -14 -29 -25 -35 -25 -7 0 -23 -8 -36 -19 -13 -10 -78 -46 -144
-80 -66 -34 -127 -66 -135 -70 -8 -4 -24 -13 -35 -19 -21 -13 -55 -29 -145
-70 -68 -30 -199 -91 -222 -103 -10 -5 -23 -9 -29 -9 -6 0 -25 -6 -42 -13 -61
-26 -132 -47 -162 -47 -16 -1 -41 -7 -55 -15 -14 -8 -38 -14 -53 -15 -15 0
-38 -6 -50 -14 -12 -7 -49 -19 -82 -26 -33 -7 -77 -18 -98 -26 -20 -8 -48 -14
-62 -14 -13 0 -27 -4 -30 -10 -3 -5 -26 -10 -50 -10 -24 0 -47 -4 -50 -10 -3
-5 -24 -10 -45 -10 -21 0 -51 -4 -65 -10 -14 -5 -79 -13 -143 -16 -64 -4 -126
-12 -137 -18 -37 -20 -650 -45 -669 -26 -6 6 -66 10 -151 10 -109 0 -146 3
-161 15 -12 9 -43 14 -87 15 -79 0 -274 27 -299 41 -10 5 -36 9 -59 9 -22 0
-50 5 -62 12 -12 6 -33 13 -46 14 -13 2 -29 8 -34 13 -6 6 -30 11 -53 11 -24
0 -46 5 -49 10 -3 6 -14 10 -23 10 -9 0 -30 7 -46 15 -15 8 -43 15 -60 15 -18
0 -37 5 -43 11 -10 10 -94 31 -188 46 -22 3 -53 17 -68 29 -16 13 -36 24 -46
24 -17 0 -74 26 -265 121 -54 27 -107 49 -117 49 -9 0 -30 10 -46 23 -15 12
-57 38 -93 56 -36 18 -88 48 -117 67 -28 19 -54 34 -58 34 -3 0 -21 10 -38 23
-18 13 -50 32 -72 43 -22 10 -46 25 -53 32 -7 6 -18 12 -24 12 -10 0 -29 14
-126 91 -31 25 -72 54 -89 64 -18 11 -33 23 -33 27 0 4 -19 18 -42 32 -24 14
-68 50 -98 81 -30 30 -59 55 -65 55 -6 0 -35 25 -65 55 -30 30 -59 55 -64 55
-15 0 -126 112 -126 127 0 7 -11 15 -24 19 -13 3 -26 15 -29 26 -3 11 -15 22
-26 25 -12 3 -21 12 -21 21 0 9 -42 60 -92 113 -51 53 -111 120 -133 147 -22
28 -47 53 -55 56 -9 3 -24 22 -35 43 -11 20 -31 51 -45 69 -14 18 -33 45 -42
61 -29 47 -42 67 -63 93 -11 14 -29 45 -39 68 -10 23 -23 42 -28 42 -4 0 -8 8
-8 18 0 10 -11 29 -25 42 -14 13 -25 29 -25 36 0 7 -13 28 -28 46 -38 44 -72
105 -72 128 0 10 -11 31 -24 47 -37 45 -106 170 -106 194 0 9 -7 22 -16 29
-19 16 -54 88 -54 110 0 9 -7 25 -15 36 -8 10 -15 28 -15 40 0 11 -9 39 -20
61 -11 22 -24 60 -29 83 -5 23 -14 47 -20 53 -6 6 -11 23 -11 38 0 15 -4 31
-10 34 -5 3 -10 13 -10 21 0 9 -11 40 -25 70 -14 30 -25 62 -25 72 0 9 -7 39
-15 66 -8 27 -15 63 -15 80 0 17 -7 40 -15 50 -8 11 -15 32 -15 47 0 15 -4 31
-10 34 -5 3 -10 24 -10 45 0 21 -4 42 -10 45 -5 3 -10 23 -10 43 -1 20 -7 48
-15 62 -8 14 -14 48 -15 77 0 28 -4 55 -10 58 -5 3 -10 38 -10 76 0 47 -6 81
-17 102 -15 29 -17 79 -17 517 1 431 2 489 17 522 10 23 17 63 17 102 0 36 5
68 10 71 6 3 10 32 10 64 0 31 4 61 9 67 9 8 20 55 38 162 3 18 9 35 14 38 5
3 9 19 9 35 0 17 6 42 14 57 7 15 16 49 20 77 6 50 22 107 37 137 5 10 9 29 9
42 0 14 4 27 9 31 5 3 13 20 17 37 3 18 10 39 14 48 12 24 31 82 41 123 5 21
18 57 28 80 11 23 22 53 26 67 13 48 260 534 286 565 15 16 40 53 55 80 59
103 70 119 102 155 17 21 32 44 32 53 0 8 3 17 8 19 10 4 72 96 72 107 0 4 10
16 21 27 12 10 44 48 71 84 27 36 77 94 111 130 34 36 71 79 81 95 26 40 364
375 379 375 7 0 46 34 87 75 41 41 79 75 83 75 5 0 37 24 72 53 90 74 162 127
171 127 4 0 22 13 39 29 29 29 54 44 175 107 30 16 57 32 60 35 27 31 557 309
591 309 8 0 36 11 63 25 27 14 56 25 64 25 7 0 28 7 45 16 60 31 67 34 87 34
12 0 33 6 48 14 15 7 47 16 72 20 24 4 49 11 55 15 5 5 24 11 40 14 52 9 119
27 140 37 11 5 36 11 55 13 19 3 64 12 100 22 36 9 92 20 125 25 33 4 78 13
100 19 22 6 63 11 91 11 27 0 54 4 60 9 10 10 87 17 329 29 186 10 697 3 709
-9z m237 -2219 c18 -10 19 -24 19 -300 0 -276 -1 -290 -19 -300 -30 -15 -1253
-14 -1269 2 -9 9 -12 89 -12 300 0 263 1 288 18 297 24 14 1236 15 1263 1z
m11143 -516 c15 -6 16 -151 17 -1538 0 -962 4 -1576 11 -1651 5 -66 11 -142
11 -170 l2 -50 -237 -3 c-277 -3 -258 -13 -233 125 14 79 15 251 12 1628 -3
847 -8 1561 -12 1588 -12 80 -21 77 209 77 112 0 211 -3 220 -6z m-1029 -354
l0 -225 -210 0 -210 0 -3 215 c-1 118 0 220 3 227 3 11 49 13 212 11 l208 -3
0 -225z m-10107 -182 c9 -9 12 -363 12 -1533 0 -1467 1 -1524 19 -1596 24 -93
27 -102 59 -168 26 -52 26 -53 7 -67 -27 -20 -1462 -21 -1488 -1 -17 11 -16
16 12 67 30 54 58 137 80 233 16 68 15 2717 0 2801 -16 86 -39 164 -61 209
-11 22 -17 45 -14 53 5 12 111 14 684 14 514 0 681 -3 690 -12z m3299 -413 c2
-16 10 -86 19 -155 9 -69 14 -141 12 -160 l-3 -35 -49 3 c-28 2 -58 8 -67 13
-10 5 -221 9 -497 9 -443 0 -480 -1 -495 -17 -26 -30 -40 -145 -34 -287 6
-145 18 -201 47 -216 12 -6 166 -10 413 -10 430 0 449 -2 532 -59 66 -44 136
-163 158 -266 16 -76 21 -793 6 -880 -35 -209 -99 -323 -208 -378 l-46 -22
-641 -3 -641 -2 -13 27 c-7 16 -16 82 -21 148 -4 66 -11 143 -15 171 -6 46 -4
53 14 58 11 4 35 0 53 -8 70 -29 180 -36 610 -36 l431 0 29 29 29 29 0 260 c0
246 -1 261 -20 285 l-21 26 -422 3 c-291 2 -428 7 -442 14 -11 7 -32 18 -48
25 -72 33 -142 138 -184 274 -16 54 -18 100 -18 430 0 415 3 441 73 595 26 58
61 99 115 135 l52 35 645 -2 645 -3 2 -30z m1051 -2 c2 -18 7 -33 11 -33 4 0
22 16 41 35 l34 35 428 0 c485 0 461 4 548 -85 24 -25 51 -45 60 -45 8 0 26
16 39 36 14 20 48 49 75 65 l51 29 433 0 432 0 38 -24 c84 -54 132 -121 165
-231 42 -138 41 -120 48 -1100 4 -619 10 -981 18 -1039 6 -50 7 -94 3 -98 -5
-5 -114 -7 -243 -6 l-234 3 2 40 c1 22 7 119 13 215 7 111 10 465 8 970 -4
781 -4 796 -25 840 -12 28 -31 50 -47 58 -19 8 -110 12 -314 12 -313 0 -316
-1 -346 -58 -29 -56 -36 -242 -36 -965 0 -683 8 -957 31 -1056 8 -34 7 -46 -3
-52 -18 -12 -459 -11 -477 0 -12 8 -12 16 0 58 12 40 14 212 14 1003 0 525 -3
967 -7 982 -5 14 -20 40 -34 57 l-26 31 -299 0 c-337 0 -333 1 -366 -73 -17
-39 -18 -93 -21 -872 -2 -570 0 -877 9 -980 6 -82 12 -163 13 -180 l1 -30
-236 -3 c-262 -3 -272 0 -251 55 30 79 34 235 29 1273 -3 575 -8 1066 -12
1093 -12 81 -23 78 217 75 l213 -3 3 -32z m4505 21 c68 -35 103 -73 142 -151
43 -87 49 -110 70 -268 21 -155 21 -1468 0 -1625 -19 -147 -36 -210 -77 -285
-26 -47 -99 -112 -151 -134 -47 -20 -66 -21 -621 -21 -658 0 -635 -3 -722 85
-63 63 -93 127 -123 260 -22 100 -31 361 -31 915 0 551 9 808 31 900 41 175
84 247 187 315 l37 24 613 0 c549 1 616 -1 645 -15z m1258 -1164 c4 -835 9
-1191 17 -1230 20 -96 35 -91 -236 -88 l-237 3 1 55 c1 30 7 91 13 135 18 121
10 2162 -9 2226 -23 82 -30 80 222 77 l223 -3 6 -1175z m3161 1154 c96 -61
146 -145 189 -319 9 -37 13 -262 16 -855 4 -712 2 -816 -12 -900 -19 -107 -36
-162 -72 -235 -35 -70 -68 -102 -140 -136 l-62 -29 -573 0 c-537 0 -576 1
-623 19 -92 35 -175 141 -206 264 -40 158 -41 185 -46 912 -5 734 -2 813 39
1005 25 121 105 244 181 279 40 18 72 19 655 20 l612 1 42 -26z m1153 7 c3
-10 10 -55 15 -100 5 -45 12 -87 16 -93 4 -6 11 -28 14 -47 4 -20 15 -63 25
-96 9 -33 21 -76 25 -95 5 -19 16 -60 25 -90 10 -30 20 -71 25 -90 4 -19 15
-61 24 -92 44 -159 97 -350 106 -388 5 -19 16 -62 25 -95 9 -33 20 -76 25 -95
5 -19 16 -60 25 -90 9 -30 20 -71 25 -90 4 -19 15 -62 25 -95 9 -33 21 -76 25
-95 5 -19 23 -84 40 -145 17 -60 35 -127 39 -148 5 -21 11 -40 14 -43 9 -10
37 28 37 51 0 13 4 34 9 47 5 13 17 50 26 83 9 33 22 83 30 110 7 28 19 70 25
95 7 25 18 65 25 90 8 25 19 65 25 90 7 25 17 59 22 75 6 17 14 46 18 65 5 19
16 60 25 90 9 30 20 71 25 90 5 19 21 78 35 130 15 52 34 120 42 150 25 96 59
216 79 285 8 28 19 66 24 85 12 49 39 148 51 190 20 68 40 166 46 223 l5 57
139 0 c133 0 139 -1 139 -20 0 -11 -4 -28 -9 -38 -24 -43 -41 -86 -41 -102 0
-9 -4 -20 -9 -25 -9 -11 -37 -104 -82 -275 -6 -25 -17 -65 -24 -90 -8 -25 -19
-65 -26 -90 -6 -25 -17 -65 -24 -90 -13 -46 -21 -78 -50 -185 -9 -33 -22 -80
-29 -105 -8 -25 -19 -65 -26 -90 -6 -25 -18 -67 -25 -95 -8 -27 -19 -70 -26
-95 -6 -25 -17 -65 -24 -90 -7 -25 -18 -65 -25 -90 -7 -25 -18 -65 -25 -90 -7
-25 -17 -63 -23 -85 -34 -126 -44 -160 -58 -212 -9 -32 -20 -73 -25 -90 -5
-18 -13 -48 -18 -65 -26 -93 -41 -149 -56 -208 -10 -36 -21 -76 -25 -90 -4
-14 -16 -54 -26 -90 -9 -36 -22 -71 -27 -77 -7 -10 -66 -13 -233 -13 l-224 0
-15 36 c-8 20 -24 73 -35 118 -11 44 -27 106 -36 136 -19 67 -42 153 -54 200
-24 95 -32 127 -40 145 -5 11 -11 34 -14 50 -2 17 -12 55 -21 85 -9 30 -20 71
-25 90 -4 19 -15 62 -25 95 -34 123 -47 171 -52 203 -3 18 -9 35 -14 38 -5 3
-9 15 -9 27 0 12 -6 42 -14 67 -8 25 -19 63 -25 85 -5 22 -17 66 -26 98 -8 31
-22 83 -30 115 -9 31 -21 75 -27 97 -6 22 -16 60 -23 85 -7 25 -18 65 -24 90
-7 25 -18 68 -26 95 -7 28 -18 68 -24 90 -55 210 -89 318 -118 380 -13 27 -21
55 -19 62 4 10 62 13 255 13 236 0 250 -1 256 -19z m-1691 -3648 c3 -76 8
-185 11 -243 l6 -105 -39 -40 c-21 -22 -69 -69 -107 -105 -39 -35 -182 -172
-319 -305 -137 -132 -255 -244 -262 -248 -8 -5 -38 -32 -67 -60 -388 -379
-605 -579 -624 -575 -16 3 -19 22 -24 206 -4 111 -10 222 -13 245 -4 24 -11
148 -16 277 -24 578 -29 674 -41 825 -7 88 -9 172 -6 186 6 25 10 26 104 32
54 4 137 7 184 7 84 0 86 -1 98 -27 9 -18 16 -111 22 -258 5 -126 13 -309 18
-405 6 -96 10 -187 10 -202 1 -36 8 -35 51 5 19 17 55 50 80 71 25 22 151 141
280 266 129 124 259 248 289 276 30 27 115 108 190 181 75 73 143 132 152 133
15 0 18 -19 23 -137z m-1633 -93 c4 -85 3 -162 -1 -170 -9 -16 -157 -25 -830
-50 -157 -5 -361 -14 -455 -19 -134 -7 -173 -6 -184 4 -16 16 -33 160 -29 257
4 89 -5 86 213 87 88 1 268 8 400 16 132 8 301 15 375 16 74 1 169 5 210 9 41
4 125 7 185 6 l110 -1 6 -155z m-1993 58 c22 -18 61 -49 87 -68 25 -19 68 -53
94 -75 27 -22 71 -58 100 -80 28 -22 53 -47 56 -55 10 -35 25 -231 25 -339 0
-64 7 -201 15 -306 16 -212 19 -312 7 -318 -21 -14 -1476 -76 -1488 -64 -3 3
-11 162 -34 737 -5 124 -14 277 -19 340 -13 141 -13 191 -2 209 8 12 64 16
288 23 153 5 337 12 408 17 72 4 196 9 277 9 l146 2 40 -32z m2002 -388 c12
-8 15 -38 15 -166 l0 -157 -30 -9 c-16 -4 -113 -10 -215 -13 -102 -3 -282 -10
-400 -15 -118 -6 -327 -15 -465 -20 -137 -6 -274 -13 -302 -16 l-53 -7 -14 35
c-16 37 -25 302 -12 316 4 4 94 10 199 13 431 15 817 31 907 38 139 12 353 12
370 1z m29 -488 c9 -18 19 -307 11 -315 -15 -14 -1476 -75 -1488 -62 -3 2 -7
76 -10 164 -4 132 -2 161 9 165 23 8 327 26 624 37 154 6 370 14 480 18 358
13 363 13 374 -7z"/>
<path d="M20400 17437 c-8 -7 -24 -25 -35 -42 -20 -29 -20 -49 -20 -825 0
-745 1 -797 18 -833 31 -64 47 -67 403 -67 218 0 326 4 353 12 87 27 91 60 91
880 0 721 -4 799 -47 856 l-24 32 -362 0 c-269 -1 -366 -4 -377 -13z"/>
<path d="M24788 17423 c-46 -50 -48 -93 -48 -865 0 -806 1 -815 64 -862 26
-20 43 -21 361 -24 371 -3 377 -2 415 61 19 31 20 56 20 830 0 723 -2 801 -17
830 -9 18 -23 37 -32 44 -12 9 -109 12 -377 13 l-360 0 -26 -27z"/>
<path d="M21168 13781 c-149 -4 -242 -11 -249 -18 -7 -7 -7 -55 1 -169 6 -88
14 -220 18 -294 l7 -135 208 4 c114 2 271 9 350 15 l142 11 0 75 c-1 41 -5
141 -9 223 l-9 147 -39 33 c-21 17 -58 49 -82 69 -24 21 -56 40 -72 42 -16 2
-136 0 -266 -3z"/>
</g>
</svg>
